<svg width="155" height="156" viewBox="0 0 155 156" fill="none" xmlns="http://www.w3.org/2000/svg">
<path d="M59.1875 20.25C60.6458 20.25 61.6667 20.7083 62.25 21.625C62.8333 22.5 63.125 24.2292 63.125 26.8125C63.125 28.7292 63 30.1667 62.75 31.125C62.5 32.0833 62.0833 32.7292 61.5 33.0625C60.9583 33.3958 60.1875 33.5625 59.1875 33.5625C55.1042 33.5625 51.9375 34.0208 49.6875 34.9375C47.4792 35.8125 45.9583 37.2083 45.125 39.125C44.3333 41 44.0208 43.5625 44.1875 46.8125L44.5 52.875L44.5625 54.5C44.5625 58.875 43.4375 62.5 41.1875 65.375C38.9375 68.2083 35.25 70.3542 30.125 71.8125V72.4375C35.25 73.8542 38.9583 76 41.25 78.875C43.5833 81.75 44.75 85.3125 44.75 89.5625C44.75 90.3958 44.7292 91.0208 44.6875 91.4375L44.125 99.625C44.0833 100.125 44.0625 100.875 44.0625 101.875C44.0625 104.667 44.5417 106.896 45.5 108.562C46.4583 110.229 48.0417 111.458 50.25 112.25C52.4583 113.083 55.4375 113.5 59.1875 113.5C60.1875 113.5 60.9583 113.646 61.5 113.938C62.0833 114.271 62.5 114.917 62.75 115.875C63 116.833 63.125 118.271 63.125 120.188C63.125 122.771 62.8333 124.521 62.25 125.438C61.6667 126.354 60.6458 126.812 59.1875 126.812C48.7292 126.812 40.9792 124.958 35.9375 121.25C30.8958 117.583 28.375 111.875 28.375 104.125C28.375 102.917 28.4375 101.667 28.5625 100.375L29.375 91.4375C29.4167 91.1042 29.4375 90.6042 29.4375 89.9375C29.4375 86.3958 28.1875 83.6667 25.6875 81.75C23.2292 79.7917 19.6667 78.8125 15 78.8125C14 78.8125 13.2292 78.6458 12.6875 78.3125C12.1458 77.9375 11.7292 77.2708 11.4375 76.3125C11.1875 75.3542 11.0625 73.9583 11.0625 72.125C11.0625 70.2917 11.1875 68.9167 11.4375 68C11.7292 67.0417 12.1458 66.3958 12.6875 66.0625C13.2292 65.6875 14 65.5 15 65.5C19.6667 65.5 23.1875 64.5417 25.5625 62.625C27.9792 60.7083 29.1875 57.9792 29.1875 54.4375C29.1875 53.7708 29.1667 53.25 29.125 52.875L28.5 46.0625C28.375 44.8125 28.3125 43.6042 28.3125 42.4375C28.3125 34.8958 30.8333 29.3125 35.875 25.6875C40.9167 22.0625 48.6875 20.25 59.1875 20.25ZM95.8125 20.25C106.312 20.25 114.083 22.0625 119.125 25.6875C124.167 29.3125 126.688 34.8958 126.688 42.4375C126.688 43.6042 126.625 44.8125 126.5 46.0625L125.875 52.875C125.833 53.25 125.812 53.7708 125.812 54.4375C125.812 57.9792 127 60.7083 129.375 62.625C131.792 64.5417 135.333 65.5 140 65.5C141 65.5 141.771 65.6875 142.312 66.0625C142.854 66.3958 143.25 67.0417 143.5 68C143.792 68.9167 143.938 70.2917 143.938 72.125C143.938 73.9583 143.792 75.3542 143.5 76.3125C143.25 77.2708 142.854 77.9375 142.312 78.3125C141.771 78.6458 141 78.8125 140 78.8125C135.333 78.8125 131.75 79.7917 129.25 81.75C126.792 83.6667 125.562 86.3958 125.562 89.9375C125.562 90.6042 125.583 91.1042 125.625 91.4375L126.438 100.375C126.562 101.667 126.625 102.917 126.625 104.125C126.625 111.875 124.104 117.583 119.062 121.25C114.021 124.958 106.271 126.812 95.8125 126.812C94.3542 126.812 93.3333 126.354 92.75 125.438C92.1667 124.521 91.875 122.771 91.875 120.188C91.875 118.271 92 116.833 92.25 115.875C92.5 114.917 92.8958 114.271 93.4375 113.938C94.0208 113.646 94.8125 113.5 95.8125 113.5C99.5625 113.5 102.542 113.083 104.75 112.25C106.958 111.458 108.542 110.229 109.5 108.562C110.458 106.896 110.938 104.667 110.938 101.875C110.938 100.875 110.917 100.125 110.875 99.625L110.312 91.4375C110.271 91.0208 110.25 90.3958 110.25 89.5625C110.25 85.3125 111.396 81.75 113.688 78.875C116.021 76 119.75 73.8542 124.875 72.4375V71.8125C119.417 70.2708 115.583 67.9375 113.375 64.8125C111.208 61.6875 110.25 57.7083 110.5 52.875L110.812 46.8125C110.854 46.3958 110.875 45.8125 110.875 45.0625C110.875 42.2708 110.396 40.0625 109.438 38.4375C108.521 36.7708 106.979 35.5417 104.812 34.75C102.646 33.9583 99.6458 33.5625 95.8125 33.5625C94.8125 33.5625 94.0208 33.3958 93.4375 33.0625C92.8958 32.7292 92.5 32.0833 92.25 31.125C92 30.1667 91.875 28.7292 91.875 26.8125C91.875 24.2292 92.1667 22.5 92.75 21.625C93.3333 20.7083 94.3542 20.25 95.8125 20.25Z" fill="white"/>
</svg>
